# xmcd
#
# Track frame offsets:
#	182
#	16405
#	31110
#	47545
#	66412
#	82352
#	100967
#	118670
#	136130
#	154815
#
# Disc length: 2287 seconds
#
# Revision: 6
# Processed by: cddbd v1.5.1PL2 Copyright (c) Steve Scherf et al.
# Submitted via: audiograbber 1.83.01
#
DISCID=8208ed0a
DTITLE=Boy Howdy - Born That Way
DYEAR=1995
DGENRE=Country
TTITLE0=Bigger Fish To Fry
TTITLE1=True To His Word
TTITLE2=Born That Way
TTITLE3=My Life's Work
TTITLE4=That's The Kind Of Man
TTITLE5=Field Of Dreams
TTITLE6=Plan B
TTITLE7=She Can't Love You
TTITLE8=Love The One You're With
TTITLE9=I Wanna Feel That Way Again
EXTD=
EXTT0=
EXTT1=
EXTT2=
EXTT3=
EXTT4=
EXTT5=
EXTT6=
EXTT7=
EXTT8=
EXTT9=
PLAYORDER=
